<svg width="40" height="55" fill="none" xmlns="http://www.w3.org/2000/svg"><g filter="url(#filter0_d_117_4)"><path d="M4.712 43.408a.5.5 0 01-.12-.696l2.594-3.677a.5.5 0 11.817.577L5.697 42.88l3.268 2.306a.5.5 0 11-.577.818l-3.676-2.596zM15.057.503C22.803 1.388 28.38 4.1 31.79 7.831c3.415 3.74 4.614 8.463 3.663 13.257-1.899 9.568-12.298 19.289-30.367 22.405l-.17-.986c17.841-3.076 27.768-12.605 29.556-21.614.891-4.494-.227-8.892-3.42-12.388-3.202-3.504-8.527-6.143-16.107-7.008l.113-.994z" fill="#4EC2D3"/></g><defs><filter id="filter0_d_117_4" x=".5" y=".503" width="39.267" height="53.592" filterUnits="userSpaceOnUse" color-interpolation-filters="sRGB"><feFlood flood-opacity="0" result="BackgroundImageFix"/><feColorMatrix in="SourceAlpha" values="0 0 0 0 0 0 0 0 0 0 0 0 0 0 0 0 0 0 127 0" result="hardAlpha"/><feOffset dy="4"/><feGaussianBlur stdDeviation="2"/><feComposite in2="hardAlpha" operator="out"/><feColorMatrix values="0 0 0 0 0 0 0 0 0 0 0 0 0 0 0 0 0 0 0.25 0"/><feBlend in2="BackgroundImageFix" result="effect1_dropShadow_117_4"/><feBlend in="SourceGraphic" in2="effect1_dropShadow_117_4" result="shape"/></filter></defs></svg>