<svg width="51" height="48" fill="none" xmlns="http://www.w3.org/2000/svg"><path d="M18.768 10.128c0-2.4 1.056-3.312 2.736-3.312 1.68 0 2.736.912 2.736 3.312v18.144c0 2.4-1.056 3.312-2.736 3.312-1.68 0-2.736-.912-2.736-3.312V10.128zm-5.28 17.808c0 5.376 2.832 8.448 8.016 8.448s8.016-3.072 8.016-8.448V10.464c0-5.376-2.832-8.448-8.016-8.448s-8.016 3.072-8.016 8.448v17.472zm19.223-2.784v2.784c0 5.376 2.688 8.448 7.872 8.448 5.184 0 7.872-3.072 7.872-8.448v-7.488c0-4.944-1.968-7.68-5.856-7.68-2.112 0-3.648.864-4.608 2.448l.432-8.016h9.168V2.4h-13.92l-.96 19.488h4.992V20.88c0-2.4 1.056-3.312 2.736-3.312 1.68 0 2.736.912 2.736 3.312v7.392c0 2.4-1.056 3.264-2.736 3.264-1.68 0-2.736-.864-2.736-3.264v-3.12h-4.992z" fill="#EDEDED"/><path d="M9 10l1.65 1.236 2.01-.458 1.006 1.8 2.022.4.186 2.053 1.685 1.188-.665 1.951 1.057 1.77-1.402 1.513.245 2.047-1.895.812-.609 1.97-2.061-.03-1.358 1.551L9 26.938l-1.871.865-1.358-1.551-2.061.03-.61-1.97-1.894-.812.245-2.047-1.402-1.512 1.056-1.77-.665-1.952 1.685-1.188.187-2.053 2.022-.4 1.005-1.8 2.01.457L9 10z" fill="url(#paint0_linear_428_9)"/><path d="M5.088 18.217l3.13 3.522 5.087-6.652" stroke="#fff" stroke-linecap="round"/><defs><linearGradient id="paint0_linear_428_9" x1="4.304" y1="3.348" x2="15.95" y2="31.705" gradientUnits="userSpaceOnUse"><stop offset=".203" stop-color="#A2FFF0" stop-opacity=".85"/><stop offset=".474" stop-color="#3EDFC5" stop-opacity=".87"/><stop offset=".958" stop-color="#1C91E7" stop-opacity=".85"/></linearGradient></defs></svg>