<svg width="51" height="48" fill="none" xmlns="http://www.w3.org/2000/svg"><path d="M18.768 10.128c0-2.4 1.056-3.312 2.736-3.312 1.68 0 2.736.912 2.736 3.312v18.144c0 2.4-1.056 3.312-2.736 3.312-1.68 0-2.736-.912-2.736-3.312V10.128zm-5.28 17.808c0 5.376 2.832 8.448 8.016 8.448s8.016-3.072 8.016-8.448V10.464c0-5.376-2.832-8.448-8.016-8.448s-8.016 3.072-8.016 8.448v17.472zm29.927-17.28c0 9.696-10.464 11.328-10.464 21.216V36h15.264v-4.8h-9.984c-.048-.24-.048-.48-.048-.72 0-5.52 10.512-9.456 10.512-20.016 0-5.376-2.688-8.448-7.872-8.448-5.184 0-7.872 3.072-7.872 8.448v3.264h4.992v-3.6c0-2.4 1.056-3.312 2.736-3.312 1.68 0 2.736.816 2.736 3.84z" fill="#EDEDED"/><path d="M9 11l1.65 1.236 2.01-.458 1.006 1.8 2.022.4.186 2.053 1.685 1.188-.665 1.951 1.057 1.77-1.402 1.513.245 2.047-1.895.812-.609 1.97-2.061-.03-1.358 1.551L9 27.938l-1.871.865-1.358-1.551-2.061.03-.61-1.97-1.894-.812.245-2.047-1.402-1.512 1.056-1.77-.665-1.952 1.685-1.188.187-2.053 2.022-.4 1.005-1.8 2.01.457L9 11z" fill="url(#paint0_linear_428_4)"/><path d="M5.088 19.217l3.13 3.522 5.087-6.652" stroke="#fff" stroke-linecap="round"/><defs><linearGradient id="paint0_linear_428_4" x1="4.304" y1="4.348" x2="15.95" y2="32.705" gradientUnits="userSpaceOnUse"><stop offset=".203" stop-color="#A2FFF0" stop-opacity=".85"/><stop offset=".474" stop-color="#3EDFC5" stop-opacity=".87"/><stop offset=".958" stop-color="#1C91E7" stop-opacity=".85"/></linearGradient></defs></svg>