<svg width="51" height="48" fill="none" xmlns="http://www.w3.org/2000/svg"><path d="M18.768 10.128c0-2.4 1.056-3.312 2.736-3.312 1.68 0 2.736.912 2.736 3.312v18.144c0 2.4-1.056 3.312-2.736 3.312-1.68 0-2.736-.912-2.736-3.312V10.128zm-5.28 17.808c0 5.376 2.832 8.448 8.016 8.448s8.016-3.072 8.016-8.448V10.464c0-5.376-2.832-8.448-8.016-8.448s-8.016 3.072-8.016 8.448v17.472zm19.127 0c0 5.376 2.832 8.448 8.016 8.448s8.016-3.072 8.016-8.448v-6.144c0-4.944-1.968-7.68-5.856-7.68-2.352 0-3.984 1.056-4.896 2.976v-6.144c0-3.216 1.056-4.128 2.928-4.128 1.68 0 2.736.912 2.736 3.312v1.2h4.992v-.864c0-5.376-2.688-8.448-7.872-8.448-5.472 0-8.064 3.072-8.064 8.736v17.184zm8.016-9.024c1.68 0 2.736.912 2.736 3.312v6.048c0 2.4-1.056 3.264-2.736 3.264-1.68 0-2.736-.864-2.736-3.264v-6.048c0-2.4 1.056-3.312 2.736-3.312z" fill="#EDEDED"/><path d="M9 8l1.65 1.235 2.01-.457 1.006 1.8 2.022.4.186 2.053 1.685 1.188-.665 1.951 1.057 1.77-1.402 1.513.245 2.047-1.895.812-.609 1.97-2.061-.03-1.358 1.551L9 24.938l-1.871.865-1.358-1.551-2.061.03-.61-1.97-1.894-.812.245-2.047-1.402-1.512 1.056-1.77-.665-1.952 1.685-1.188.187-2.053 2.022-.4 1.005-1.8 2.01.457L9 8z" fill="url(#paint0_linear_428_10)"/><path d="M5.088 16.217l3.13 3.522 5.087-6.652" stroke="#fff" stroke-linecap="round"/><defs><linearGradient id="paint0_linear_428_10" x1="4.304" y1="1.348" x2="15.95" y2="29.705" gradientUnits="userSpaceOnUse"><stop offset=".203" stop-color="#A2FFF0" stop-opacity=".85"/><stop offset=".474" stop-color="#3EDFC5" stop-opacity=".87"/><stop offset=".958" stop-color="#1C91E7" stop-opacity=".85"/></linearGradient></defs></svg>