<svg width="51" height="48" fill="none" xmlns="http://www.w3.org/2000/svg"><mask id="a" style="mask-type:alpha" maskUnits="userSpaceOnUse" x="0" y="0" width="51" height="48"><path fill="#D9D9D9" d="M0 0h51v48H0z"/></mask><g mask="url(#a)"><path d="M19.457 11.128c0-2.4 1.056-3.312 2.736-3.312 1.68 0 2.736.912 2.736 3.312v18.144c0 2.4-1.055 3.312-2.735 3.312s-2.736-.912-2.736-3.312V11.128zm-5.28 17.808c0 5.376 2.832 8.448 8.017 8.448 5.184 0 8.015-3.072 8.015-8.448V11.464c0-5.376-2.831-8.448-8.015-8.448-5.184 0-8.016 3.072-8.016 8.448v17.472zm29.64-15.408c0 2.688-1.2 3.552-3.168 3.552h-2.064v4.8h1.776c2.4 0 3.456 1.152 3.456 4.272v2.64c0 2.976-1.056 3.792-2.736 3.792-1.68 0-2.736-.912-2.736-3.312v-3.12h-4.992v2.784c0 5.376 2.688 8.448 7.872 8.448 5.184 0 7.872-3.072 7.872-8.448v-2.64c0-3.408-1.056-5.904-3.696-7.056 2.544-1.056 3.696-3.312 3.696-6.912v-.864c0-5.376-2.688-8.448-7.872-8.448-5.184 0-7.872 3.072-7.872 8.448v1.824h4.992v-2.16c0-2.4 1.056-3.312 2.736-3.312 1.68 0 2.736.816 2.736 3.84v1.872z" fill="#EDEDED"/><path d="M9.517 12l1.745 1.236 2.126-.458 1.063 1.8 2.139.4.197 2.053 1.782 1.188-.703 1.951 1.116 1.77-1.481 1.513.258 2.047-2.004.812-.644 1.97-2.18-.03-1.435 1.551-1.979-.865-1.978.865-1.436-1.551-2.18.03-.644-1.97-2.004-.812.259-2.047-1.482-1.512 1.117-1.77-.703-1.952 1.782-1.188.197-2.053 2.138-.4 1.063-1.8 2.126.457L9.517 12z" fill="url(#paint0_linear_428_7)"/><path d="M5.379 20.217l3.31 3.522 5.38-6.652" stroke="#fff" stroke-linecap="round"/></g><defs><linearGradient id="paint0_linear_428_7" x1="4.552" y1="5.348" x2="15.735" y2="34.145" gradientUnits="userSpaceOnUse"><stop offset=".203" stop-color="#A2FFF0" stop-opacity=".85"/><stop offset=".474" stop-color="#3EDFC5" stop-opacity=".87"/><stop offset=".958" stop-color="#1C91E7" stop-opacity=".85"/></linearGradient></defs></svg>