<svg width="256" height="256" fill="none" xmlns="http://www.w3.org/2000/svg"><path fill="#fff" d="M0 0h256v256H0z"/><path d="M108.772 46.575c-1.582-5.445-1.898-11.797 5.378-14.52 4.429-1.815 8.225.605 10.123 4.538 2.53 5.142 3.163 10.89-2.215 14.822-4.428 3.63-11.388 1.21-13.286-4.84z" fill="url(#paint0_linear_222_3)"/><path d="M106.241 56.86c0 4.235-.316 7.865-6.96 9.075-4.428.908-7.591-3.327-8.857-7.865-1.265-4.84-.633-9.68 4.429-12.1 6.959-3.025 8.858 3.025 10.439 6.655.633 1.815.949 4.235.949 4.235z" fill="url(#paint1_linear_222_3)"/><path d="M91.057 69.868c1.265 3.63 1.898 9.377-3.164 11.192-6.01 1.815-9.174-1.815-11.072-6.957-1.581-4.538-1.265-8.773 4.43-10.588 5.377-1.512 7.908 2.118 9.806 6.353z" fill="url(#paint2_linear_222_3)"/><path d="M154.325 32.963c0-5.748 1.582-17.546 12.021-16.94C177.102 16.626 179 26.004 179 34.474c0 7.563-3.163 15.428-12.654 14.823-9.806-.605-12.021-8.47-12.021-16.335z" fill="url(#paint3_linear_222_3)"/><path d="M145.151 44.76c-4.429 3.025-12.021 2.42-14.868-4.235-2.847-6.957-2.847-14.822 4.113-18.755 6.326-3.328 13.602 1.21 14.868 7.563.949 5.445 0 13.007-4.113 15.427z" fill="url(#paint4_linear_222_3)"/><path d="M149.896 50.508s22.461 0 27.206 26.922c1.898 11.193-5.694 23.596-12.337 32.368 0 0-12.338 14.52-16.45 26.015-3.796 11.495-6.96 19.663-4.113 33.276 2.847 13.612 10.756 23.595 10.756 23.595s12.337 13.612 1.265 31.762c-7.908 13.311-20.246 14.823-31.634 14.521-11.072-.303-21.894-9.883-24.194-12.783-4.066-5.127-7.124-8.09-2.695-45.903.949-9.377-2.214-19.663-5.378-29.343-8.541-24.805-8.541-41.14-8.541-41.14s-.316-16.033 12.337-30.553c12.654-14.822 24.991-20.267 30.686-22.687 13.919-6.353 23.092-6.05 23.092-6.05z" fill="url(#paint5_linear_222_3)"/><defs><linearGradient id="paint0_linear_222_3" x1="109.882" y1="126.218" x2="125.643" y2="404.433" gradientUnits="userSpaceOnUse"><stop stop-color="#28B8CC"/><stop offset="1" stop-color="#FEFEFE" stop-opacity="0"/></linearGradient><linearGradient id="paint1_linear_222_3" x1="109.882" y1="126.218" x2="125.643" y2="404.433" gradientUnits="userSpaceOnUse"><stop stop-color="#28B8CC"/><stop offset="1" stop-color="#FEFEFE" stop-opacity="0"/></linearGradient><linearGradient id="paint2_linear_222_3" x1="109.882" y1="126.218" x2="125.643" y2="404.433" gradientUnits="userSpaceOnUse"><stop stop-color="#28B8CC"/><stop offset="1" stop-color="#FEFEFE" stop-opacity="0"/></linearGradient><linearGradient id="paint3_linear_222_3" x1="109.882" y1="126.218" x2="125.643" y2="404.433" gradientUnits="userSpaceOnUse"><stop stop-color="#28B8CC"/><stop offset="1" stop-color="#FEFEFE" stop-opacity="0"/></linearGradient><linearGradient id="paint4_linear_222_3" x1="109.882" y1="126.218" x2="125.643" y2="404.433" gradientUnits="userSpaceOnUse"><stop stop-color="#28B8CC"/><stop offset="1" stop-color="#FEFEFE" stop-opacity="0"/></linearGradient><linearGradient id="paint5_linear_222_3" x1="109.882" y1="126.218" x2="125.643" y2="404.433" gradientUnits="userSpaceOnUse"><stop stop-color="#28B8CC"/><stop offset="1" stop-color="#FEFEFE" stop-opacity="0"/></linearGradient></defs></svg>