<svg width="183" height="62" fill="none" xmlns="http://www.w3.org/2000/svg"><path d="M9.015 10.053c-.562-1.366-.842-3.006.857-3.931 1.028-.605 2.037-.091 2.628.873.785 1.258 1.123 2.731-.071 3.914-.97 1.076-2.756.657-3.414-.856z" fill="url(#paint0_linear_47_41)"/><path d="M8.722 12.8c.135 1.099.173 2.05-1.418 2.565-1.058.369-1.969-.635-2.424-1.775-.465-1.219-.464-2.494.7-3.275 1.612-.995 2.27.519 2.774 1.414.213.452.368 1.07.368 1.07z" fill="url(#paint1_linear_47_41)"/><path d="M5.411 16.634c.426.904.765 2.377-.42 3-1.416.653-2.308-.194-2.937-1.472-.533-1.13-.59-2.24.749-2.882 1.27-.555 2.007.311 2.608 1.354z" fill="url(#paint2_linear_47_41)"/><path d="M19.757 5.147c-.183-1.492-.171-4.603 2.41-4.76 2.658-.167 3.422 2.21 3.692 4.41.241 1.962-.284 4.1-2.632 4.228-2.425.139-3.22-1.836-3.47-3.878z" fill="url(#paint3_linear_47_41)"/><path d="M17.883 8.486c-.99.919-2.873.99-3.783-.652-.92-1.72-1.171-3.762.41-4.992 1.447-1.055 3.377-.096 3.89 1.515.406 1.385.414 3.377-.517 4.129z" fill="url(#paint4_linear_47_41)"/><path d="M19.23 9.835s5.51-.677 7.533 6.17c.822 2.848-.645 6.297-1.995 8.774 0 0-2.565 4.141-3.207 7.25-.565 3.098-1.08 5.314.052 8.762 1.132 3.448 3.39 5.801 3.39 5.801s3.461 3.162 1.323 8.208c-1.515 3.693-4.494 4.458-7.298 4.722-2.726.255-5.422-1.047-6.672-3.007-.073-.115-1.677-1.468-1.796-11.418-.066-2.463-1.17-5.038-2.254-7.455-2.886-6.183-3.407-10.423-3.407-10.423s-.589-4.153 2.053-8.303c2.632-4.23 5.485-6.015 6.805-6.815 3.213-2.068 5.473-2.266 5.473-2.266z" fill="url(#paint5_linear_47_41)"/><path d="M26.764 23.007c.433-1.005.661-2.216-.585-2.923-.754-.46-1.507-.092-1.957.614-.597.922-.866 2.009.003 2.9.706.809 2.032.521 2.54-.591z" fill="url(#paint6_linear_47_41)"/><path d="M26.947 25.044c-.114.813-.154 1.517 1.018 1.918.778.286 1.466-.446 1.817-1.284.36-.897.375-1.841-.478-2.434-1.18-.757-1.687.355-2.071 1.012-.164.332-.286.788-.286.788z" fill="url(#paint7_linear_47_41)"/><path d="M29.35 27.925c-.326.664-.596 1.75.273 2.228 1.041.5 1.712-.116 2.195-1.054.408-.83.465-1.651-.519-2.144-.934-.426-1.49.206-1.948.97z" fill="url(#paint8_linear_47_41)"/><path d="M18.87 19.239c.155-1.103.185-3.407-1.724-3.556-1.966-.156-2.562 1.595-2.79 3.22-.203 1.45.16 3.04 1.896 3.164 1.795.133 2.407-1.32 2.619-2.828z" fill="url(#paint9_linear_47_41)"/><path d="M20.217 21.735c.722.693 2.114.77 2.81-.435.703-1.263.914-2.772-.242-3.703-1.058-.799-2.5-.113-2.9 1.074-.318 1.02-.349 2.495.332 3.064z" fill="url(#paint10_linear_47_41)"/><path d="M19.202 22.717s-4.072-.57-5.656 4.475c-.644 2.099.4 4.671 1.368 6.523 0 0 1.847 3.098 2.284 5.408.38 2.302.733 3.95-.149 6.489-.881 2.539-2.583 4.253-2.583 4.253s-2.603 2.299-1.083 6.062c1.002 2.48 3.217 3.813 5.274 3.777 2.403.13 4.306-.78 5.05-2.332.047-.328 1.26-1.066 1.473-8.433.08-1.823.93-3.716 1.764-5.493 2.214-4.542 2.653-7.676 2.653-7.676s.488-3.068-1.416-6.174c-1.896-3.165-3.987-4.523-4.954-5.132-2.353-1.572-4.025-1.747-4.025-1.747z" fill="url(#paint11_linear_47_41)"/><path d="M16.674 34.27c-.2-.713-.24-1.545.681-1.902.561-.238 1.042.08 1.282.595.32.674.4 1.427-.28 1.942-.561.476-1.443.159-1.683-.634z" fill="url(#paint12_linear_47_41)"/><path d="M16.354 35.618c0 .555-.04 1.031-.882 1.19-.56.119-.961-.436-1.122-1.03-.16-.635-.08-1.27.561-1.587.882-.396 1.122.397 1.322.873.08.237.12.554.12.554z" fill="url(#paint13_linear_47_41)"/><path d="M14.43 37.323c.16.476.24 1.229-.4 1.467-.761.237-1.162-.238-1.402-.912-.2-.595-.16-1.15.56-1.387.681-.199 1.002.277 1.242.832z" fill="url(#paint14_linear_47_41)"/><path d="M22.443 32.487c0-.753.2-2.299 1.523-2.22 1.362.08 1.602 1.308 1.602 2.418 0 .991-.4 2.022-1.602 1.943-1.242-.08-1.523-1.11-1.523-2.14z" fill="url(#paint15_linear_47_41)"/><path d="M21.282 34.033c-.561.396-1.523.317-1.884-.555-.36-.912-.36-1.942.521-2.458.802-.436 1.723.159 1.883.991.12.714 0 1.705-.52 2.022z" fill="url(#paint16_linear_47_41)"/><path d="M21.882 34.786s2.845 0 3.446 3.528c.24 1.467-.721 3.092-1.563 4.241 0 0-1.562 1.903-2.083 3.41-.48 1.505-.881 2.576-.52 4.36a8.354 8.354 0 001.361 3.091s1.563 1.784.16 4.162c-1 1.744-2.563 1.942-4.006 1.903-1.402-.04-2.773-1.295-3.064-1.675-.515-.672-.902-1.06-.341-6.015.12-1.229-.28-2.576-.681-3.845-1.082-3.25-1.082-5.39-1.082-5.39s-.04-2.102 1.562-4.004c1.603-1.943 3.165-2.656 3.887-2.973 1.763-.833 2.924-.793 2.924-.793z" fill="url(#paint17_linear_47_41)"/><path d="M40.521 37.734h1.37c.206 0 .343-.136.343-.34V28.85h3.495c3.392 0 5.585-2.247 5.585-5.48v-3.677c0-3.574-2.158-6.127-5.585-6.127-3.426 0-5.55 2.553-5.55 6.127v17.7c0 .205.137.341.342.341zm1.713-10.79v-7.25c0-2.52 1.337-4.221 3.495-4.221 2.159 0 3.53 1.701 3.53 4.22v3.677c0 2.178-1.405 3.574-3.53 3.574h-3.495zm12.642 10.79h1.37c.206 0 .343-.136.343-.34v-8.306h7.195v8.306c0 .204.138.34.343.34h1.37c.206 0 .343-.136.343-.34V19.728c0-3.677-2.261-6.128-5.653-6.128-3.392 0-5.654 2.451-5.654 6.127v17.667c0 .204.137.34.343.34zm1.713-10.552v-7.454c0-2.656 1.302-4.221 3.598-4.221 2.295 0 3.597 1.565 3.597 4.22v7.455H56.59zm21.384-1.702c1.747-.51 2.844-2.28 2.844-4.561v-1.634c0-3.404-2.159-5.685-5.448-5.685-3.152 0-5.277 2.281-5.277 5.685V36.78c0 .613.412 1.021 1.028 1.021h4.694c3.358 0 5.585-2.28 5.585-5.718v-1.668c0-2.383-1.336-4.29-3.426-4.936zm-5.825-6.195c0-2.383 1.2-3.778 3.22-3.778 2.16 0 3.393 1.395 3.393 3.778v1.634c0 2.383-1.268 3.778-3.426 3.778h-3.187v-5.412zm7.196 12.799c0 2.382-1.302 3.812-3.53 3.812h-3.666v-9.293h3.666c2.228 0 3.53 1.43 3.53 3.813v1.668zm14.62-17.837v10.45h-6.853v-10.45c0-.204-.137-.34-.342-.34h-1.37c-.206 0-.343.136-.343.34v23.147c0 .204.137.34.342.34h1.37c.206 0 .343-.136.343-.34V26.569h6.853v10.825c0 .204.137.34.343.34h1.37c.206 0 .343-.136.343-.34V14.247c0-.204-.137-.34-.343-.34h-1.37c-.206 0-.343.136-.343.34zm11.957 23.793c3.426 0 5.825-2.553 5.825-5.956V19.557c0-3.404-2.399-5.957-5.825-5.957-3.427 0-5.825 2.553-5.825 6.298v11.845c0 3.744 2.398 6.297 5.825 6.297zm0-1.906c-2.227 0-3.769-1.702-3.769-4.39V19.897c0-2.69 1.542-4.391 3.769-4.391 2.227 0 3.769 1.702 3.769 4.05v12.527c0 2.348-1.542 4.05-3.769 4.05zm17.525-10.654c1.747-.51 2.844-2.28 2.844-4.561v-1.634c0-3.404-2.159-5.685-5.448-5.685-3.153 0-5.277 2.281-5.277 5.685V36.78c0 .613.411 1.021 1.028 1.021h4.694c3.358 0 5.585-2.28 5.585-5.718v-1.668c0-2.383-1.336-4.29-3.426-4.936zm-5.825-6.195c0-2.383 1.199-3.778 3.221-3.778 2.158 0 3.392 1.395 3.392 3.778v1.634c0 2.383-1.268 3.778-3.427 3.778h-3.186v-5.412zm7.195 12.799c0 2.382-1.302 3.812-3.529 3.812h-3.666v-9.293h3.666c2.227 0 3.529 1.43 3.529 3.813v1.668zm9.976 5.718h3.563c.206 0 .343-.136.343-.34v-1.226c0-.204-.137-.34-.343-.34h-3.563c-2.091 0-3.53-1.702-3.53-3.949v-5.344h6.271c.205 0 .342-.136.342-.34v-1.226c0-.204-.137-.34-.342-.34h-6.271v-5.004c0-2.246 1.439-3.948 3.53-3.948h3.563c.206 0 .343-.136.343-.34v-1.226c0-.204-.137-.34-.343-.34h-3.563c-3.29 0-5.585 2.553-5.585 5.854v12.254c0 3.302 2.295 5.855 5.585 5.855zm12.346.272c3.358 0 5.654-2.587 5.757-6.501 0-.204-.137-.306-.343-.306h-1.37c-.206 0-.343.102-.343.34-.069 2.86-1.439 4.561-3.701 4.561-2.227 0-3.529-1.463-3.529-3.948v-12.8c0-2.485 1.302-3.948 3.529-3.948 2.056 0 3.427 1.565 3.53 4.39 0 .239.137.341.342.341h1.371c.205 0 .342-.136.342-.34-.102-3.779-2.364-6.298-5.585-6.298-3.357 0-5.585 2.35-5.585 5.855v12.8c0 3.506 2.228 5.854 5.585 5.854zm17.825-23.827v21.649h-3.426c-2.159 0-3.529-1.702-3.529-4.119v-17.53c0-.204-.137-.34-.343-.34h-1.37c-.206 0-.343.136-.343.34v17.53c0 3.472 2.193 6.025 5.585 6.025h4.454c.651 0 1.028-.374 1.028-1.021V14.247c0-.204-.137-.34-.343-.34h-1.37c-.206 0-.343.136-.343.34zm11.721 23.555h3.563c.206 0 .343-.136.343-.34v-1.226c0-.204-.137-.34-.343-.34h-3.563c-2.09 0-3.529-1.702-3.529-3.949v-5.344h6.27c.206 0 .343-.136.343-.34v-1.226c0-.204-.137-.34-.343-.34h-6.27v-5.004c0-2.246 1.439-3.948 3.529-3.948h3.563c.206 0 .343-.136.343-.34v-1.226c0-.204-.137-.34-.343-.34h-3.563c-3.289 0-5.585 2.553-5.585 5.854v12.254c0 3.302 2.296 5.855 5.585 5.855zM43.496 51.35l-1.93-2.628h-.808v2.628h-.512v-5.57h.512v2.488h.507l2.066-2.488h.608l-2.078 2.51 2.248 3.06h-.613zm1.576-5.57h.504v4.67h.044l3.32-4.67h.499v5.57h-.512v-4.665h-.044l-3.316 4.665h-.495v-5.57zm5.858 5.57v-5.57h.511v2.553h3.181V45.78h.512v5.57h-.512v-2.56h-3.18v2.56h-.513zm5.69 0v-5.57h3.253v.456h-2.74v2.097H59.7v.457h-2.568v2.103h2.795v.457H56.62zm6.278.076a2.22 2.22 0 01-.925-.185 1.597 1.597 0 01-.646-.52 1.353 1.353 0 01-.252-.764h.517a.93.93 0 00.19.533c.116.15.271.268.465.354.193.083.409.125.646.125.26 0 .487-.048.684-.144.2-.096.354-.228.466-.395a1 1 0 00.17-.57c0-.226-.058-.424-.173-.596a1.132 1.132 0 00-.496-.403 1.858 1.858 0 00-.766-.144h-.329v-.457h.329a1.5 1.5 0 00.643-.13c.188-.09.336-.214.444-.373a.982.982 0 00.161-.563.973.973 0 00-.534-.908 1.24 1.24 0 00-.588-.134c-.217 0-.416.042-.597.125-.18.084-.327.202-.438.354a.962.962 0 00-.175.541h-.496a1.37 1.37 0 01.241-.764 1.57 1.57 0 01.616-.517 1.93 1.93 0 01.854-.188c.33 0 .616.068.857.202s.427.313.559.535c.133.222.2.466.2.732 0 .317-.087.59-.26.816-.174.225-.407.38-.701.468v.035c.357.07.638.229.843.473.206.243.31.542.31.895 0 .298-.08.565-.236.802a1.648 1.648 0 01-.646.56 2.066 2.066 0 01-.937.205zm3.149-5.646h.503v4.67h.044l3.321-4.67h.498v5.57h-.512v-4.665h-.043l-3.316 4.665h-.495v-5.57zM76.5 48.565c0 .58-.103 1.085-.312 1.515-.208.427-.494.76-.86.995-.362.234-.78.35-1.253.35-.473 0-.892-.116-1.257-.35a2.41 2.41 0 01-.856-.995c-.207-.43-.31-.935-.31-1.515 0-.58.103-1.085.31-1.512a2.38 2.38 0 01.86-.996 2.26 2.26 0 011.253-.354c.473 0 .89.118 1.254.354.365.234.651.566.86.995.208.428.312.932.312 1.513zm-.498 0c0-.499-.084-.926-.252-1.281a1.92 1.92 0 00-.687-.819 1.773 1.773 0 00-.988-.283c-.367 0-.695.094-.986.283-.29.189-.52.46-.69.816-.167.355-.251.783-.251 1.284 0 .498.084.925.252 1.28.167.356.396.629.687.82.29.188.62.282.988.282.369 0 .698-.094.988-.283a1.91 1.91 0 00.69-.816c.168-.357.251-.785.25-1.283zm3.905-.229v.457h-2.333v-.457h2.333zm5.922.229c0 .58-.105 1.085-.313 1.515-.208.427-.494.76-.86.995a2.26 2.26 0 01-1.253.35c-.473 0-.892-.116-1.257-.35a2.411 2.411 0 01-.857-.995c-.206-.43-.309-.935-.309-1.515 0-.58.103-1.085.31-1.512.207-.43.494-.762.859-.996a2.26 2.26 0 011.254-.354c.473 0 .89.118 1.254.354.365.234.651.566.86.995.207.428.312.932.312 1.513zm-.499 0c0-.499-.084-.926-.252-1.281a1.92 1.92 0 00-.687-.819 1.773 1.773 0 00-.988-.283c-.367 0-.696.094-.986.283-.29.189-.52.46-.69.816-.168.355-.251.783-.251 1.284 0 .498.084.925.251 1.28.168.356.397.629.688.82.29.188.62.282.988.282.369 0 .698-.094.988-.283a1.91 1.91 0 00.69-.816c.168-.357.251-.785.25-1.283zm1.737 2.785v-5.57h1.81c.397 0 .73.076.996.228.268.15.47.355.605.615.137.259.205.55.205.876 0 .324-.068.617-.203.878a1.49 1.49 0 01-.602.617c-.266.15-.598.226-.994.226h-1.423v-.457h1.41c.294 0 .537-.054.73-.163.194-.11.338-.261.433-.452a1.41 1.41 0 00.145-.65c0-.242-.048-.46-.145-.65-.095-.19-.24-.34-.435-.448-.194-.11-.439-.163-.737-.163H87.58v5.113h-.512zm4.478-5.114v-.456h4.066v.456h-1.777v5.114h-.512v-5.114h-1.777zm9.582 2.329c0 .58-.104 1.085-.313 1.515-.208.427-.494.76-.86.995-.362.234-.78.35-1.253.35-.473 0-.892-.116-1.257-.35a2.411 2.411 0 01-.856-.995c-.207-.43-.31-.935-.31-1.515 0-.58.103-1.085.31-1.512.208-.43.494-.762.86-.996a2.26 2.26 0 011.253-.354c.473 0 .89.118 1.254.354.365.234.651.566.859.995.209.428.313.932.313 1.513zm-.499 0c0-.499-.084-.926-.252-1.281a1.913 1.913 0 00-.687-.819 1.773 1.773 0 00-.988-.283c-.367 0-.695.094-.986.283-.29.189-.52.46-.69.816-.167.355-.251.783-.251 1.284 0 .498.084.925.251 1.28.168.356.397.629.688.82.29.188.62.282.988.282.369 0 .698-.094.988-.283a1.91 1.91 0 00.69-.816c.168-.357.251-.785.249-1.283zm5.736-2.785v5.57h-.509v-5.114h-3.019v5.114h-.512v-5.57h4.04zm1.451 5.57v-5.57h3.253v.456h-2.741v2.097h2.568v.457h-2.568v2.103h2.796v.457h-3.308zm4.049 1.351v-1.808h.356c.13-.135.249-.311.359-.53.109-.222.201-.507.274-.855.075-.35.123-.787.145-1.31l.112-2.418h3.206v5.113h.657v1.795h-.487V51.35h-4.134v1.35h-.488zm.97-1.808h2.995v-4.657h-2.254l-.087 1.962c-.02.426-.058.805-.112 1.139a5.227 5.227 0 01-.219.884c-.09.256-.198.48-.323.672zm5.243-5.113h.504v4.67h.043l3.321-4.67h.498v5.57h-.511v-4.665h-.044l-3.316 4.665h-.495v-5.57zm5.854 0h.51v1.846c0 .289.05.52.15.697a.88.88 0 00.441.378c.192.078.422.117.693.117a5.08 5.08 0 00.873-.074c.144-.025.286-.055.427-.09a5.12 5.12 0 00.413-.12v.468a6.311 6.311 0 01-.824.21 4.916 4.916 0 01-.887.07c-.379 0-.703-.056-.972-.17a1.257 1.257 0 01-.613-.537c-.14-.244-.211-.56-.211-.949V45.78zm3.442 0h.501v5.57h-.501v-5.57zm1.989 5.57v-5.57h3.253v.456h-2.741v2.097h2.568v.457h-2.568v2.103h2.795v.457h-3.307zm8.969-3.83h-.515a1.562 1.562 0 00-.208-.527 1.636 1.636 0 00-.372-.427 1.712 1.712 0 00-.509-.283 1.84 1.84 0 00-.616-.1c-.354 0-.677.09-.969.274-.291.183-.523.452-.699.808-.173.353-.26.786-.26 1.3 0 .516.087.952.26 1.305.176.354.408.622.699.805a1.8 1.8 0 00.969.272c.22 0 .426-.033.616-.1a1.634 1.634 0 00.881-.707c.101-.164.17-.34.208-.531h.515a2.255 2.255 0 01-.257.715c-.125.22-.283.412-.477.577a2.137 2.137 0 01-.662.386c-.25.093-.525.139-.824.139-.471 0-.889-.117-1.254-.351a2.404 2.404 0 01-.86-.995c-.206-.428-.309-.933-.309-1.515 0-.582.103-1.087.309-1.515a2.38 2.38 0 01.86-.993 2.26 2.26 0 011.254-.354c.299 0 .574.047.824.14a2.141 2.141 0 011.139.963c.125.218.211.457.257.714zm4.452 3.83l-1.93-2.628h-.808v2.628h-.512v-5.57h.512v2.488h.507l2.067-2.488h.608l-2.078 2.51 2.247 3.06h-.613zm1.576-5.57h.504v4.67h.044l3.321-4.67h.498v5.57h-.512v-4.665h-.044l-3.315 4.665h-.496v-5.57zm5.857 0h.504v4.67h.044l3.321-4.67h.498v5.57h-.512v-4.665h-.044l-3.315 4.665h-.496v-5.57zm2.686-1.393h.46c0 .26-.087.47-.26.631-.172.161-.406.242-.704.242-.293 0-.526-.08-.698-.242a.828.828 0 01-.257-.63h.46c0 .14.038.26.115.358.078.096.205.144.38.144.176 0 .303-.048.384-.144a.549.549 0 00.12-.359zm9.86 6.476l-.074 1.803h-.504V51.35h-.424v-.487h1.002zm-4.52.487v-5.57h.49v5.1h3.055v-5.1h.488v5.57h-4.033zm5.624 0v-5.57h3.252v.456h-2.74v2.097h2.568v.457h-2.568v2.103h2.795v.457h-3.307zm4.577 0v-5.57h.512v2.553h3.181V45.78h.512v5.57h-.512v-2.56h-3.181v2.56h-.512zm5.352-5.114v-.456h4.066v.456h-1.777v5.114h-.512v-5.114h-1.777zm5.218 5.114v-5.57h1.81c.398 0 .73.076.997.228.268.15.47.355.605.615.136.259.205.55.205.876 0 .324-.068.617-.203.878-.135.26-.336.465-.602.617-.266.15-.598.226-.994.226h-1.423v-.457h1.41c.293 0 .537-.054.73-.163.194-.11.338-.261.433-.452a1.41 1.41 0 00.145-.65c0-.242-.048-.46-.145-.65-.095-.19-.24-.34-.435-.448-.194-.11-.439-.163-.737-.163h-1.284v5.113h-.512z" fill="#275170"/><defs><linearGradient id="paint0_linear_47_41" x1="5.254" y1="4.114" x2="19.743" y2="59.443" gradientUnits="userSpaceOnUse"><stop stop-color="#64B8D2"/><stop offset="1" stop-color="#DFF8F9"/></linearGradient><linearGradient id="paint1_linear_47_41" x1="5.254" y1="4.114" x2="19.743" y2="59.443" gradientUnits="userSpaceOnUse"><stop stop-color="#64B8D2"/><stop offset="1" stop-color="#DFF8F9"/></linearGradient><linearGradient id="paint2_linear_47_41" x1="5.254" y1="4.114" x2="19.743" y2="59.443" gradientUnits="userSpaceOnUse"><stop stop-color="#64B8D2"/><stop offset="1" stop-color="#DFF8F9"/></linearGradient><linearGradient id="paint3_linear_47_41" x1="5.254" y1="4.114" x2="19.743" y2="59.443" gradientUnits="userSpaceOnUse"><stop stop-color="#64B8D2"/><stop offset="1" stop-color="#DFF8F9"/></linearGradient><linearGradient id="paint4_linear_47_41" x1="5.254" y1="4.114" x2="19.743" y2="59.443" gradientUnits="userSpaceOnUse"><stop stop-color="#64B8D2"/><stop offset="1" stop-color="#DFF8F9"/></linearGradient><linearGradient id="paint5_linear_47_41" x1="5.254" y1="4.114" x2="19.743" y2="59.443" gradientUnits="userSpaceOnUse"><stop stop-color="#64B8D2"/><stop offset="1" stop-color="#DFF8F9"/></linearGradient><linearGradient id="paint6_linear_47_41" x1="30.997" y1="20.055" x2="14.326" y2="66.981" gradientUnits="userSpaceOnUse"><stop stop-color="#275170"/><stop offset="1" stop-color="#268EA5" stop-opacity="0"/></linearGradient><linearGradient id="paint7_linear_47_41" x1="30.997" y1="20.055" x2="14.326" y2="66.981" gradientUnits="userSpaceOnUse"><stop stop-color="#275170"/><stop offset="1" stop-color="#268EA5" stop-opacity="0"/></linearGradient><linearGradient id="paint8_linear_47_41" x1="30.997" y1="20.055" x2="14.326" y2="66.981" gradientUnits="userSpaceOnUse"><stop stop-color="#275170"/><stop offset="1" stop-color="#268EA5" stop-opacity="0"/></linearGradient><linearGradient id="paint9_linear_47_41" x1="30.997" y1="20.055" x2="14.326" y2="66.981" gradientUnits="userSpaceOnUse"><stop stop-color="#275170"/><stop offset="1" stop-color="#268EA5" stop-opacity="0"/></linearGradient><linearGradient id="paint10_linear_47_41" x1="30.997" y1="20.055" x2="14.326" y2="66.981" gradientUnits="userSpaceOnUse"><stop stop-color="#275170"/><stop offset="1" stop-color="#268EA5" stop-opacity="0"/></linearGradient><linearGradient id="paint11_linear_47_41" x1="30.997" y1="20.055" x2="14.326" y2="66.981" gradientUnits="userSpaceOnUse"><stop stop-color="#275170"/><stop offset="1" stop-color="#268EA5" stop-opacity="0"/></linearGradient><linearGradient id="paint12_linear_47_41" x1="16.814" y1="44.707" x2="18.951" y2="81.154" gradientUnits="userSpaceOnUse"><stop stop-color="#fff"/><stop offset="1" stop-color="#FEFEFE" stop-opacity="0"/></linearGradient><linearGradient id="paint13_linear_47_41" x1="16.814" y1="44.707" x2="18.951" y2="81.154" gradientUnits="userSpaceOnUse"><stop stop-color="#fff"/><stop offset="1" stop-color="#FEFEFE" stop-opacity="0"/></linearGradient><linearGradient id="paint14_linear_47_41" x1="16.814" y1="44.707" x2="18.951" y2="81.154" gradientUnits="userSpaceOnUse"><stop stop-color="#fff"/><stop offset="1" stop-color="#FEFEFE" stop-opacity="0"/></linearGradient><linearGradient id="paint15_linear_47_41" x1="16.814" y1="44.707" x2="18.951" y2="81.154" gradientUnits="userSpaceOnUse"><stop stop-color="#fff"/><stop offset="1" stop-color="#FEFEFE" stop-opacity="0"/></linearGradient><linearGradient id="paint16_linear_47_41" x1="16.814" y1="44.707" x2="18.951" y2="81.154" gradientUnits="userSpaceOnUse"><stop stop-color="#fff"/><stop offset="1" stop-color="#FEFEFE" stop-opacity="0"/></linearGradient><linearGradient id="paint17_linear_47_41" x1="16.814" y1="44.707" x2="18.951" y2="81.154" gradientUnits="userSpaceOnUse"><stop stop-color="#fff"/><stop offset="1" stop-color="#FEFEFE" stop-opacity="0"/></linearGradient></defs></svg>