<svg width="54" height="51" fill="none" xmlns="http://www.w3.org/2000/svg"><g opacity=".5"><path d="M50.72 40.326c0 2.852-.913 5.209-2.742 7.07C46.272 49.131 44.018 50 41.215 50s-5.118-.992-6.946-2.977c-1.828-1.984-2.742-4.899-2.742-8.744 0-4.837 1.462-10.48 4.387-16.93 3.047-6.45 7.129-12.9 12.247-19.349L52 5.535c-3.778 5.085-6.52 9.674-8.226 13.767-1.706 3.97-2.68 7.752-2.925 11.35h.366c2.803 0 5.057.93 6.763 2.79 1.828 1.736 2.742 4.03 2.742 6.884zm-30.71 0c0 2.852-.852 5.209-2.558 7.07C15.745 49.131 13.49 50 10.688 50c-2.803 0-5.118-.992-6.946-2.977C1.914 45.04 1 42.124 1 38.28c0-4.837 1.462-10.48 4.387-16.93C8.312 14.899 12.333 8.449 17.452 2l4.021 3.535c-3.778 5.085-6.58 9.674-8.408 13.767-1.707 3.97-2.681 7.752-2.925 11.35h.548c2.803 0 5.057.93 6.764 2.79 1.706 1.736 2.559 4.03 2.559 6.884z" fill="url(#paint0_linear_47_320)" fill-opacity=".3"/><path d="M35.462 21.135h0l-.003.007c-2.942 6.487-4.432 12.204-4.432 17.137 0 3.917.93 6.973 2.874 9.083 1.927 2.092 4.378 3.138 7.314 3.138 2.915 0 5.306-.907 7.12-2.754 1.929-1.963 2.885-4.45 2.885-7.42 0-2.964-.952-5.392-2.885-7.235-1.774-1.928-4.105-2.9-6.945-2.939.295-3.372 1.24-6.922 2.844-10.652h0l.002-.005c1.685-4.044 4.402-8.597 8.165-13.662l.269-.361-.331-.305L48.5 1.632l-.396-.364-.334.421c-5.139 6.475-9.243 12.957-12.308 19.446zm-17.654 26.61l.006-.005.006-.007c1.802-1.964 2.69-4.447 2.69-7.407 0-2.957-.886-5.383-2.696-7.228-1.81-1.972-4.203-2.947-7.126-2.947h-.008c.296-3.37 1.24-6.92 2.843-10.648 1.808-4.048 4.588-8.604 8.352-13.67l.274-.37-.346-.304-4.021-3.535-.395-.347-.327.412C11.92 8.166 7.876 14.65 4.932 21.142 1.99 27.63.5 33.346.5 38.28c0 3.917.931 6.973 2.874 9.083 1.927 2.092 4.378 3.138 7.314 3.138 2.915 0 5.306-.907 7.12-2.754z" stroke="url(#paint1_linear_47_320)" stroke-opacity=".3"/></g><defs><linearGradient id="paint0_linear_47_320" x1="10.852" y1="-30" x2="44.544" y2="60.667" gradientUnits="userSpaceOnUse"><stop stop-color="#A2FFF0" stop-opacity=".85"/><stop offset=".474" stop-color="#0AC6A7" stop-opacity=".65"/><stop offset="1" stop-color="#1C91E7" stop-opacity=".85"/></linearGradient><linearGradient id="paint1_linear_47_320" x1="10.852" y1="-30" x2="44.544" y2="60.667" gradientUnits="userSpaceOnUse"><stop stop-color="#A2FFF0" stop-opacity=".85"/><stop offset=".474" stop-color="#0AC6A7" stop-opacity=".65"/><stop offset="1" stop-color="#1C91E7" stop-opacity=".85"/></linearGradient></defs></svg>