<svg width="33" height="31" fill="none" xmlns="http://www.w3.org/2000/svg"><path opacity=".6" d="M21.278 13.07h0l-.003.007c-1.754 3.8-2.651 7.166-2.651 10.086 0 2.317.56 4.16 1.763 5.442 1.185 1.264 2.694 1.895 4.489 1.895 1.773 0 3.247-.544 4.369-1.666 1.187-1.187 1.774-2.693 1.774-4.477 0-1.778-.583-3.252-1.774-4.37-1.048-1.117-2.41-1.7-4.042-1.767.195-1.875.742-3.85 1.65-5.927h0l.003-.005c.991-2.337 2.594-4.978 4.822-7.924l.276-.366-.34-.307-2.279-2.062-.392-.355-.332.412c-3.06 3.788-5.505 7.582-7.333 11.384zM11.121 28.834l.006-.006.006-.006c1.11-1.19 1.654-2.691 1.654-4.465 0-1.77-.542-3.242-1.66-4.363-1.072-1.146-2.473-1.731-4.156-1.778.195-1.872.741-3.845 1.648-5.92 1.066-2.342 2.707-4.986 4.935-7.932l.282-.374-.354-.306-2.388-2.062-.39-.338-.325.402C7.318 5.475 4.907 9.272 3.15 13.077 1.397 16.877.5 20.243.5 23.163c0 2.317.56 4.16 1.763 5.442C3.448 29.87 4.957 30.5 6.752 30.5c1.773 0 3.247-.544 4.369-1.666z" fill="url(#paint0_linear_47_321)" stroke="url(#paint1_linear_47_321)"/><defs><linearGradient id="paint0_linear_47_321" x1="6.849" y1="-16.667" x2="26.241" y2="36.446" gradientUnits="userSpaceOnUse"><stop stop-color="#A2FFF0" stop-opacity=".85"/><stop offset=".474" stop-color="#0AC6A7" stop-opacity=".65"/><stop offset="1" stop-color="#1C91E7" stop-opacity=".85"/></linearGradient><linearGradient id="paint1_linear_47_321" x1="6.849" y1="-16.667" x2="26.241" y2="36.446" gradientUnits="userSpaceOnUse"><stop stop-color="#A2FFF0" stop-opacity=".85"/><stop offset=".474" stop-color="#0AC6A7" stop-opacity=".65"/><stop offset="1" stop-color="#1C91E7" stop-opacity=".85"/></linearGradient></defs></svg>